<svg xmlns="http://www.w3.org/2000/svg" width="15" height="15" viewBox="0 0 15 15">
    <g fill="none" fill-rule="evenodd">
        <g fill="#FFF" fill-rule="nonzero">
            <g>
                <g>
                    <g>
                        <g>
                            <path d="M12.318 7.498c-.296 0-.536.24-.536.536v5.355c0 .296-.24.536-.535.536h-9.64c-.296 0-.536-.24-.536-.536V2.678c0-.296.24-.536.536-.536h6.426c.296 0 .536-.24.536-.535 0-.296-.24-.536-.536-.536H1.607C.719 1.071 0 1.791 0 2.678v10.711c0 .888.72 1.607 1.607 1.607h9.64c.887 0 1.607-.72 1.607-1.607V8.034c0-.296-.24-.536-.536-.536z" transform="translate(-556 -544) translate(330 100) translate(59 69) translate(30 364) translate(137 11)"/>
                            <path d="M14.396.6c-.385-.384-.906-.6-1.45-.6-.544-.001-1.067.215-1.45.601L4.44 7.655c-.058.059-.102.13-.129.21l-1.07 3.213c-.094.28.057.584.338.677.055.018.112.028.169.028.057 0 .115-.01.17-.028l3.213-1.07c.079-.027.15-.072.209-.13L14.395 3.5c.801-.8.801-2.099 0-2.9zm-.758 2.143L6.676 9.706l-2.08.694.692-2.077 6.965-6.963c.383-.382 1.003-.381 1.385.002.183.183.286.43.287.689 0 .26-.103.509-.287.692z" transform="translate(-556 -544) translate(330 100) translate(59 69) translate(30 364) translate(137 11)"/>
                        </g>
                    </g>
                </g>
            </g>
        </g>
    </g>
</svg>
