<svg xmlns="http://www.w3.org/2000/svg" width="18" height="18" viewBox="0 0 18 18">
    <g fill="none" fill-rule="evenodd">
        <g fill="#FFF" fill-rule="nonzero">
            <g>
                <g>
                    <path d="M17.746 16.72l-5.11-5.119c.99-1.225 1.586-2.78 1.586-4.476 0-3.928-3.19-7.125-7.11-7.125C3.19 0 0 3.197 0 7.125c0 3.929 3.19 7.125 7.111 7.125 1.692 0 3.245-.597 4.467-1.588l5.11 5.118c.145.147.337.22.528.22.192 0 .384-.073.53-.22.292-.293.292-.767 0-1.06zM7.11 12.75c-3.096 0-5.614-2.523-5.614-5.625S4.015 1.5 7.111 1.5s5.614 2.523 5.614 5.625-2.518 5.625-5.614 5.625z" transform="translate(-1183 -29) translate(951 17) translate(232 12)"/>
                </g>
            </g>
        </g>
    </g>
</svg>
